<svg width="1280" height="748" viewBox="0 0 1280 748" fill="none" xmlns="http://www.w3.org/2000/svg">
<g clip-path="url(#clip0_73_354)">
<rect width="1280" height="748" fill="white"/>
<g clip-path="url(#clip1_73_354)" filter="url(#filter0_f_73_354)">
<rect width="865" height="553.6" transform="translate(663.5 -20)" fill="white"/>
<path d="M909.314 129.13C832.41 294.09 846.953 397.513 952.937 439.397C1111.92 502.223 1489.94 527.353 1647.95 663.64C1805.95 799.924 2287.74 694.567 2370.14 460.66C2452.53 226.753 2600.89 -133.774 1818.6 -133.774C1297.07 -133.774 993.976 -46.1414 909.314 129.13Z" fill="#D6F2FF"/>
<path d="M947.428 119.436C874.643 275.56 888.408 373.442 988.714 413.082C1139.18 472.543 1496.95 496.327 1646.49 625.312C1796.03 754.296 2252.01 654.582 2329.99 433.206C2407.97 211.83 2548.38 -129.384 1808 -129.384C1314.41 -129.384 1027.55 -46.4453 947.428 119.436Z" fill="#C7E1F3"/>
<path d="M985.541 109.743C916.877 257.029 929.862 349.371 1024.49 386.767C1166.44 442.862 1503.95 465.3 1645.04 586.984C1786.11 708.667 2216.28 614.598 2289.85 405.752C2363.41 196.906 2495.87 -124.993 1797.4 -124.993C1331.75 -124.993 1061.13 -46.7493 985.541 109.743Z" fill="#B8CFE6"/>
<path d="M1023.65 100.049C959.11 238.498 971.316 325.299 1060.27 360.452C1193.7 413.181 1510.96 434.273 1643.58 548.656C1776.19 663.038 2180.55 574.613 2249.7 378.298C2318.86 181.983 2443.37 -120.603 1786.8 -120.603C1349.09 -120.603 1094.71 -47.0534 1023.65 100.049Z" fill="#A9BEDA"/>
<path d="M1061.77 90.3557C1001.34 219.968 1012.77 301.228 1096.04 334.137C1220.96 383.501 1517.97 403.246 1642.12 510.328C1766.27 617.409 2144.82 534.628 2209.56 350.844C2274.3 167.059 2390.86 -116.212 1776.21 -116.212C1366.43 -116.212 1128.29 -47.3574 1061.77 90.3557Z" fill="#9AADCE"/>
<path d="M1099.88 80.6621C1043.58 201.437 1054.22 277.157 1131.82 307.822C1248.22 353.82 1524.98 372.219 1640.67 472C1756.35 571.78 2109.09 494.643 2169.41 323.389C2229.74 152.136 2338.35 -111.821 1765.61 -111.821C1383.77 -111.821 1161.87 -47.6615 1099.88 80.6621Z" fill="#8B9BC1"/>
<path d="M1138 70.9688C1085.81 182.906 1095.68 253.086 1167.6 281.507C1275.48 324.139 1531.99 341.192 1639.21 433.672C1746.43 526.151 2073.35 454.658 2129.27 295.936C2185.18 137.213 2285.85 -107.431 1755.01 -107.431C1401.11 -107.431 1195.44 -47.9653 1138 70.9688Z" fill="#7D8AB5"/>
<path d="M1176.11 61.2752C1128.04 164.376 1137.13 229.015 1203.37 255.192C1302.73 294.459 1539 310.165 1637.75 395.344C1736.51 480.522 2037.62 414.673 2089.12 268.482C2140.62 122.29 2233.34 -103.04 1744.41 -103.04C1418.45 -103.04 1229.02 -48.2693 1176.11 61.2752Z" fill="#6E79A9"/>
<path d="M1214.22 51.5817C1170.28 145.845 1178.59 204.943 1239.15 228.877C1329.99 264.778 1546.01 279.138 1636.3 357.016C1726.59 434.893 2001.89 374.689 2048.98 241.027C2096.06 107.366 2180.83 -98.6494 1733.81 -98.6494C1435.79 -98.6494 1262.6 -48.5734 1214.22 51.5817Z" fill="#5F679C"/>
<path d="M1252.34 41.8881C1212.51 127.314 1220.04 180.872 1274.93 202.562C1357.26 235.097 1553.02 248.111 1634.84 318.688C1716.67 389.264 1966.16 334.704 2008.83 213.573C2051.5 92.4428 2128.33 -94.2588 1723.22 -94.2588C1453.14 -94.2588 1296.18 -48.8774 1252.34 41.8881Z" fill="#505690"/>
<path d="M1290.45 32.1945C1254.74 108.783 1261.5 156.801 1310.7 176.247C1384.51 205.417 1560.02 217.084 1633.39 280.36C1706.75 343.635 1930.43 294.719 1968.69 186.119C2006.94 77.5194 2075.82 -89.8682 1712.62 -89.8682C1470.48 -89.8682 1329.76 -49.1815 1290.45 32.1945Z" fill="#414584"/>
</g>
<g filter="url(#filter1_f_73_354)">
<rect width="912.5" height="584" transform="matrix(-1 0 0 -1 663.5 767)" fill="white"/>
<path d="M404.187 609.681C485.315 435.662 469.973 326.56 358.169 282.376C190.46 216.1 -208.318 189.59 -375.007 45.8188C-541.69 -97.9491 -1049.93 13.1938 -1136.85 259.945C-1223.77 506.697 -1380.27 887.022 -555.028 887.022C-4.85767 887.022 314.877 794.577 404.187 609.681Z" fill="#D6F2FF"/>
<path d="M363.981 619.907C440.762 455.21 426.242 351.953 320.428 310.136C161.703 247.41 -215.712 222.32 -373.471 86.2513C-531.225 -49.8147 -1012.24 55.3741 -1094.5 288.907C-1176.77 522.44 -1324.88 882.39 -543.848 882.39C-23.151 882.39 279.455 794.897 363.981 619.907Z" fill="#C7E1F3"/>
<path d="M323.774 630.132C396.21 474.758 382.511 377.346 282.687 337.896C132.946 278.72 -223.106 255.051 -371.935 126.684C-520.759 -1.68013 -974.546 97.5546 -1052.15 317.869C-1129.76 538.183 -1269.5 877.759 -532.668 877.759C-41.4443 877.759 244.033 795.218 323.774 630.132Z" fill="#B8CFE6"/>
<path d="M283.568 640.358C351.657 494.307 338.781 402.739 244.946 365.656C104.19 310.031 -230.499 287.782 -370.399 167.117C-510.294 46.4546 -936.853 139.735 -1009.8 346.83C-1082.76 553.926 -1214.11 873.127 -521.488 873.127C-59.7376 873.127 208.611 795.539 283.568 640.358Z" fill="#A9BEDA"/>
<path d="M243.362 650.584C307.105 513.855 295.05 428.132 207.205 393.416C75.4328 341.342 -237.893 320.512 -368.863 207.55C-499.828 94.5891 -899.16 181.916 -967.455 375.792C-1035.75 569.668 -1158.72 868.495 -510.307 868.495C-78.0309 868.495 173.189 795.86 243.362 650.584Z" fill="#9AADCE"/>
<path d="M203.155 660.81C262.552 533.403 251.32 453.525 169.463 421.176C46.6761 372.652 -245.287 353.243 -367.327 247.983C-489.362 142.724 -861.467 224.096 -925.106 404.754C-988.745 585.411 -1103.33 863.864 -499.127 863.864C-96.3242 863.864 137.767 796.18 203.155 660.81Z" fill="#8B9BC1"/>
<path d="M162.949 671.036C218 552.951 207.589 478.918 131.722 448.936C17.9193 403.963 -252.68 385.974 -365.79 288.415C-478.897 190.858 -823.774 266.277 -882.757 433.715C-941.739 601.154 -1047.94 859.232 -487.947 859.232C-114.618 859.232 102.345 796.501 162.949 671.036Z" fill="#7D8AB5"/>
<path d="M122.742 681.262C173.447 572.5 163.858 504.311 93.981 476.696C-10.8374 435.273 -260.074 418.705 -364.254 328.848C-468.431 238.993 -786.082 308.457 -840.407 462.677C-894.733 616.897 -992.546 854.6 -476.767 854.6C-132.911 854.6 66.9233 796.822 122.742 681.262Z" fill="#6E79A9"/>
<path d="M82.5359 691.488C128.895 592.048 120.128 529.704 56.2399 504.456C-39.5941 466.584 -267.467 451.435 -362.718 369.281C-457.966 287.128 -748.389 350.638 -798.058 491.639C-847.727 632.64 -937.157 849.968 -465.587 849.968C-151.204 849.968 31.5014 797.142 82.5359 691.488Z" fill="#5F679C"/>
<path d="M42.329 701.713C84.3416 611.596 76.3965 555.097 18.4983 532.216C-68.3513 497.895 -274.862 484.166 -361.182 409.713C-447.501 335.262 -710.697 392.818 -755.709 520.6C-800.722 648.383 -881.767 845.337 -454.407 845.337C-169.498 845.337 -3.92103 797.463 42.329 701.713Z" fill="#505690"/>
<path d="M2.12259 711.939C39.789 631.145 32.6659 580.49 -19.2429 559.976C-97.108 529.205 -282.255 516.897 -359.646 450.146C-437.035 383.397 -673.004 434.999 -713.36 549.562C-753.716 664.125 -826.378 840.705 -443.227 840.705C-187.791 840.705 -39.343 797.784 2.12259 711.939Z" fill="#414584"/>
</g>
</g>
<defs>
<filter id="filter0_f_73_354" x="486.2" y="-197.3" width="1219.6" height="908.2" filterUnits="userSpaceOnUse" color-interpolation-filters="sRGB">
<feFlood flood-opacity="0" result="BackgroundImageFix"/>
<feBlend mode="normal" in="SourceGraphic" in2="BackgroundImageFix" result="shape"/>
<feGaussianBlur stdDeviation="88.65" result="effect1_foregroundBlur_73_354"/>
</filter>
<filter id="filter1_f_73_354" x="-1386.03" y="-195.276" width="2226.83" height="1259.6" filterUnits="userSpaceOnUse" color-interpolation-filters="sRGB">
<feFlood flood-opacity="0" result="BackgroundImageFix"/>
<feBlend mode="normal" in="SourceGraphic" in2="BackgroundImageFix" result="shape"/>
<feGaussianBlur stdDeviation="88.65" result="effect1_foregroundBlur_73_354"/>
</filter>
<clipPath id="clip0_73_354">
<rect width="1280" height="748" fill="white"/>
</clipPath>
<clipPath id="clip1_73_354">
<rect width="865" height="553.6" fill="white" transform="translate(663.5 -20)"/>
</clipPath>
</defs>
</svg>
