<svg width="121" height="22" viewBox="0 0 121 22" fill="none" xmlns="http://www.w3.org/2000/svg">
<path d="M10.9999 22C17.0751 22 21.9998 17.0753 21.9998 11V3.3C21.9998 2.42479 21.6522 1.58542 21.0333 0.966551C20.4144 0.347681 19.5751 3.8147e-06 18.6998 3.8147e-06L11.5499 3.8147e-06V4.8257C11.5499 5.9268 11.617 7.0675 12.1945 8.0047C12.6079 8.67637 13.1609 9.25125 13.8161 9.69034C14.4713 10.1294 15.2133 10.4225 15.9916 10.5496L16.2023 10.5837C16.2891 10.6133 16.3645 10.6694 16.4179 10.7441C16.4713 10.8187 16.5 10.9082 16.5 11C16.5 11.0918 16.4713 11.1813 16.4179 11.2559C16.3645 11.3306 16.2891 11.3867 16.2023 11.4164L15.9916 11.4505C14.8543 11.6362 13.8041 12.1746 12.9893 12.9894C12.1744 13.8043 11.6361 14.8545 11.4503 15.9918L11.4162 16.2024C11.3865 16.2893 11.3304 16.3647 11.2558 16.4181C11.1811 16.4714 11.0916 16.5001 10.9999 16.5001C10.9081 16.5001 10.8186 16.4714 10.7439 16.4181C10.6693 16.3647 10.6132 16.2893 10.5835 16.2024L10.5494 15.9918C10.4223 15.2134 10.1292 14.4715 9.69015 13.8163C9.25106 13.1611 8.6762 12.6081 8.00456 12.1946C7.06736 11.6171 5.92666 11.55 4.82556 11.55H0.0130615C0.300711 17.3696 5.10936 22 10.9999 22Z" fill="#162456"/>
<path d="M0 10.45H4.8257C5.9268 10.45 7.0675 10.3829 8.0047 9.8054C8.73731 9.35401 9.35401 8.73731 9.8054 8.0047C10.3829 7.0675 10.45 5.9268 10.45 4.8257V0H3.3C2.42479 0 1.58542 0.347677 0.966547 0.966547C0.347677 1.58542 0 2.42479 0 3.3L0 10.45ZM25.5502 1.1C25.5502 1.39174 25.4344 1.67153 25.2281 1.87782C25.0218 2.08411 24.742 2.2 24.4502 2.2C24.1585 2.2 23.8787 2.08411 23.6724 1.87782C23.4661 1.67153 23.3502 1.39174 23.3502 1.1C23.3502 0.808262 23.4661 0.528472 23.6724 0.322182C23.8787 0.115893 24.1585 0 24.4502 0C24.742 0 25.0218 0.115893 25.2281 0.322182C25.4344 0.528472 25.5502 0.808262 25.5502 1.1ZM116.441 6.6572C119.516 6.6572 121 8.80495 121 11.2926V15.9648H117.782V11.847C117.782 10.7195 117.371 9.7889 116.191 9.7889C115.011 9.7889 114.618 10.7195 114.618 11.847V15.9643H111.4V11.847C111.4 10.7195 111.006 9.7889 109.826 9.7889C108.646 9.7889 108.235 10.7195 108.235 11.847V15.9643H105.018V11.292C105.018 8.8044 106.501 6.65665 109.576 6.65665C111.257 6.65665 112.472 7.31885 113.027 8.4106C113.616 7.31885 114.904 6.6561 116.441 6.6561V6.6572ZM99.2348 13.101C100.272 13.101 100.719 12.1522 100.719 11.0242V7.0147H103.936V11.418C103.936 14.0492 102.399 16.2332 99.2348 16.2332C96.0701 16.2332 94.5329 14.0497 94.5329 11.418V7.0147H97.7509V11.0242C97.7509 12.1517 98.1975 13.101 99.2348 13.101ZM89.8012 16.2508C87.7811 16.2508 86.4759 15.5529 85.707 14.1927L88.0313 12.8859C88.3531 13.4585 88.8354 13.745 89.6401 13.745C90.3017 13.745 90.6053 13.5124 90.6053 13.2258C90.6053 12.1341 85.8858 13.244 85.8858 9.77185C85.8858 8.08885 87.3158 6.7287 89.7473 6.7287C91.8747 6.7287 93.0369 7.76655 93.5555 8.7692L91.2312 10.0936C91.0349 9.5568 90.4266 9.2345 89.8188 9.2345C89.3541 9.2345 89.1038 9.4314 89.1038 9.6998C89.1038 10.8097 93.8234 9.78945 93.8234 13.1543C93.8234 15.0337 91.982 16.2508 89.8012 16.2508ZM78.5581 20.0816H75.3401V11.4719C75.3401 8.7329 77.396 6.7463 80.2565 6.7463C83.0456 6.7463 85.173 8.87645 85.173 11.4719C85.173 14.3357 83.2777 16.2332 80.4353 16.2332C79.7736 16.2332 79.1125 16.0363 78.5581 15.7316V20.0816ZM80.2565 13.2082C81.2757 13.2082 81.9549 12.4206 81.9549 11.4895C81.9549 10.5413 81.2757 9.7713 80.2565 9.7713C79.2374 9.7713 78.5581 10.5413 78.5581 11.49C78.5581 12.4206 79.2374 13.2082 80.2565 13.2082ZM72.1165 6.0665C71.0616 6.0665 70.186 5.18925 70.186 4.13325C70.186 3.07725 71.0616 2.2 72.1165 2.2C73.1714 2.2 74.0476 3.07725 74.0476 4.13325C74.0476 5.18925 73.1714 6.0665 72.1165 6.0665ZM70.5078 7.0147H73.7258V15.9648H70.5078V7.0147ZM64.3335 16.2332C61.5444 16.2332 59.417 14.0855 59.417 11.4719C59.417 8.87645 61.5444 6.7287 64.3335 6.7287C67.1225 6.7287 69.2499 8.87645 69.2499 11.4719C69.2499 14.0855 67.1225 16.2332 64.3335 16.2332ZM64.3335 13.2082C65.3526 13.2082 66.0319 12.4206 66.0319 11.4895C66.0319 10.5413 65.3526 9.7537 64.3335 9.7537C63.3143 9.7537 62.6351 10.5413 62.6351 11.4895C62.6351 12.4206 63.3143 13.2082 64.3335 13.2082ZM53.3406 20.35C51.1241 20.35 49.5148 19.3655 48.6926 17.611L51.3562 16.1793C51.6422 16.7882 52.1785 17.4146 53.2867 17.4146C54.4494 17.4146 55.2178 16.6804 55.3074 15.3917C54.8784 15.7679 54.1986 16.0539 53.18 16.0539C50.6946 16.0539 48.692 14.1388 48.692 11.4537C48.692 8.85885 50.82 6.7463 53.609 6.7463C56.4696 6.7463 58.5255 8.73345 58.5255 11.4719V15.0161C58.5255 18.238 56.2903 20.35 53.3406 20.35ZM53.5551 13.0295C54.5204 13.0295 55.2535 12.3667 55.2535 11.3822C55.2535 10.4159 54.5209 9.7713 53.5551 9.7713C52.6075 9.7713 51.8567 10.4159 51.8567 11.3828C51.8567 12.3673 52.6075 13.0289 53.5551 13.0289V13.0295ZM43.2338 16.2332C40.4448 16.2332 38.3168 14.0855 38.3168 11.4719C38.3168 8.87645 40.4448 6.7287 43.2338 6.7287C46.0223 6.7287 48.1503 8.87645 48.1503 11.4719C48.1503 14.0855 46.0229 16.2332 43.2338 16.2332ZM43.2338 13.2082C44.253 13.2082 44.9322 12.4206 44.9322 11.4895C44.9322 10.5413 44.253 9.7537 43.2338 9.7537C42.2147 9.7537 41.5354 10.5413 41.5354 11.4895C41.5354 12.4206 42.2147 13.2082 43.2338 13.2082ZM32.4571 3.883V12.9217H37.785V15.9648H32.01C29.9722 15.9648 29.15 14.8907 29.15 13.1901V3.883H32.4571Z" fill="#162456"/>
</svg>
